TITLE ""
FILE "2Q_t_0871-0888.mp3" MP3
  TRACK 01 AUDIO
    TITLE "2Q_t_0871-0888_01"
    INDEX 01 00:00:00
  TRACK 02 AUDIO
    TITLE "2Q_t_0871-0888_02"
    INDEX 01 00:01:18
  TRACK 03 AUDIO
    TITLE "2Q_t_0871-0888_03"
    INDEX 01 00:01:67
  TRACK 04 AUDIO
    TITLE "2Q_t_0871-0888_04"
    INDEX 01 00:03:07
  TRACK 05 AUDIO
    TITLE "2Q_t_0871-0888_05"
    INDEX 01 00:03:52
  TRACK 06 AUDIO
    TITLE "2Q_t_0871-0888_06"
    INDEX 01 00:04:47
  TRACK 07 AUDIO
    TITLE "2Q_t_0871-0888_07"
    INDEX 01 00:05:31
  TRACK 08 AUDIO
    TITLE "2Q_t_0871-0888_08"
    INDEX 01 00:09:07
  TRACK 09 AUDIO
    TITLE "2Q_t_0871-0888_09"
    INDEX 01 00:09:52
  TRACK 10 AUDIO
    TITLE "2Q_t_0871-0888_10"
    INDEX 01 00:11:06
  TRACK 11 AUDIO
    TITLE "2Q_t_0871-0888_11"
    INDEX 01 00:11:51
  TRACK 12 AUDIO
    TITLE "2Q_t_0871-0888_12"
    INDEX 01 00:13:09
  TRACK 13 AUDIO
    TITLE "2Q_t_0871-0888_13"
    INDEX 01 00:13:54
  TRACK 14 AUDIO
    TITLE "2Q_t_0871-0888_14"
    INDEX 01 00:14:63
  TRACK 15 AUDIO
    TITLE "2Q_t_0871-0888_15"
    INDEX 01 00:15:39
  TRACK 16 AUDIO
    TITLE "2Q_t_0871-0888_16"
    INDEX 01 00:16:50
  TRACK 17 AUDIO
    TITLE "2Q_t_0871-0888_17"
    INDEX 01 00:17:22
  TRACK 18 AUDIO
    TITLE "2Q_t_0871-0888_18"
    INDEX 01 00:18:26
  TRACK 19 AUDIO
    TITLE "2Q_t_0871-0888_19"
    INDEX 01 00:19:00
  TRACK 20 AUDIO
    TITLE "2Q_t_0871-0888_20"
    INDEX 01 00:20:15
  TRACK 21 AUDIO
    TITLE "2Q_t_0871-0888_21"
    INDEX 01 00:20:60
  TRACK 22 AUDIO
    TITLE "2Q_t_0871-0888_22"
    INDEX 01 00:22:22
  TRACK 23 AUDIO
    TITLE "2Q_t_0871-0888_23"
    INDEX 01 00:22:69
  TRACK 24 AUDIO
    TITLE "2Q_t_0871-0888_24"
    INDEX 01 00:24:68
  TRACK 25 AUDIO
    TITLE "2Q_t_0871-0888_25"
    INDEX 01 00:25:38
  TRACK 26 AUDIO
    TITLE "2Q_t_0871-0888_26"
    INDEX 01 00:26:47
  TRACK 27 AUDIO
    TITLE "2Q_t_0871-0888_27"
    INDEX 01 00:27:21
  TRACK 28 AUDIO
    TITLE "2Q_t_0871-0888_28"
    INDEX 01 00:29:59
  TRACK 29 AUDIO
    TITLE "2Q_t_0871-0888_29"
    INDEX 01 00:30:27
  TRACK 30 AUDIO
    TITLE "2Q_t_0871-0888_30"
    INDEX 01 00:31:38
  TRACK 31 AUDIO
    TITLE "2Q_t_0871-0888_31"
    INDEX 01 00:32:10
  TRACK 32 AUDIO
    TITLE "2Q_t_0871-0888_32"
    INDEX 01 00:33:16
  TRACK 33 AUDIO
    TITLE "2Q_t_0871-0888_33"
    INDEX 01 00:33:59
  TRACK 34 AUDIO
    TITLE "2Q_t_0871-0888_34"
    INDEX 01 00:34:66
  TRACK 35 AUDIO
    TITLE "2Q_t_0871-0888_35"
    INDEX 01 00:35:40
  TRACK 36 AUDIO
    TITLE "2Q_t_0871-0888_36"
    INDEX 01 00:36:30
  TRACK 37 AUDIO
    TITLE "2Q_t_0871-0888_37"
    INDEX 01 00:37:00
  TRACK 38 AUDIO
    TITLE "2Q_t_0871-0888_38"
    INDEX 01 00:37:57
  TRACK 39 AUDIO
    TITLE "2Q_t_0871-0888_39"
    INDEX 01 00:38:38
  TRACK 40 AUDIO
    TITLE "2Q_t_0871-0888_40"
    INDEX 01 00:39:44
  TRACK 41 AUDIO
    TITLE "2Q_t_0871-0888_41"
    INDEX 01 00:40:14
  TRACK 42 AUDIO
    TITLE "2Q_t_0871-0888_42"
    INDEX 01 00:41:39
  TRACK 43 AUDIO
    TITLE "2Q_t_0871-0888_43"
    INDEX 01 00:42:15
  TRACK 44 AUDIO
    TITLE "2Q_t_0871-0888_44"
    INDEX 01 00:43:28
  TRACK 45 AUDIO
    TITLE "2Q_t_0871-0888_45"
    INDEX 01 00:43:73
  TRACK 46 AUDIO
    TITLE "2Q_t_0871-0888_46"
    INDEX 01 00:45:17
  TRACK 47 AUDIO
    TITLE "2Q_t_0871-0888_47"
    INDEX 01 00:45:62
  TRACK 48 AUDIO
    TITLE "2Q_t_0871-0888_48"
    INDEX 01 00:48:72
  TRACK 49 AUDIO
    TITLE "2Q_t_0871-0888_49"
    INDEX 01 00:49:40
  TRACK 50 AUDIO
    TITLE "2Q_t_0871-0888_50"
    INDEX 01 00:50:55
  TRACK 51 AUDIO
    TITLE "2Q_t_0871-0888_51"
    INDEX 01 00:51:27
  TRACK 52 AUDIO
    TITLE "2Q_t_0871-0888_52"
    INDEX 01 00:52:42
  TRACK 53 AUDIO
    TITLE "2Q_t_0871-0888_53"
    INDEX 01 00:53:12
  TRACK 54 AUDIO
    TITLE "2Q_t_0871-0888_54"
    INDEX 01 00:54:24
  TRACK 55 AUDIO
    TITLE "2Q_t_0871-0888_55"
    INDEX 01 00:55:03
  TRACK 56 AUDIO
    TITLE "2Q_t_0871-0888_56"
    INDEX 01 00:56:70
  TRACK 57 AUDIO
    TITLE "2Q_t_0871-0888_57"
    INDEX 01 00:57:38
  TRACK 58 AUDIO
    TITLE "2Q_t_0871-0888_58"
    INDEX 01 00:58:63
  TRACK 59 AUDIO
    TITLE "2Q_t_0871-0888_59"
    INDEX 01 00:59:39
  TRACK 60 AUDIO
    TITLE "2Q_t_0871-0888_60"
    INDEX 01 01:00:63
  TRACK 61 AUDIO
    TITLE "2Q_t_0871-0888_61"
    INDEX 01 01:01:35
  TRACK 62 AUDIO
    TITLE "2Q_t_0871-0888_62"
    INDEX 01 01:02:49
  TRACK 63 AUDIO
    TITLE "2Q_t_0871-0888_63"
    INDEX 01 01:03:19
  TRACK 64 AUDIO
    TITLE "2Q_t_0871-0888_64"
    INDEX 01 01:06:50
  TRACK 65 AUDIO
    TITLE "2Q_t_0871-0888_65"
    INDEX 01 01:07:18
  TRACK 66 AUDIO
    TITLE "2Q_t_0871-0888_66"
    INDEX 01 01:08:49
  TRACK 67 AUDIO
    TITLE "2Q_t_0871-0888_67"
    INDEX 01 01:09:25
  TRACK 68 AUDIO
    TITLE "2Q_t_0871-0888_68"
    INDEX 01 01:10:62
  TRACK 69 AUDIO
    TITLE "2Q_t_0871-0888_69"
    INDEX 01 01:11:34
  TRACK 70 AUDIO
    TITLE "2Q_t_0871-0888_70"
    INDEX 01 01:12:49
  TRACK 71 AUDIO
    TITLE "2Q_t_0871-0888_71"
    INDEX 01 01:13:23
  TRACK 72 AUDIO
    TITLE "2Q_t_0871-0888_72"
    INDEX 01 01:14:28
